<?xml version="1.0" encoding="UTF-8" standalone="no"?>
<!DOCTYPE svg PUBLIC "-//W3C//DTD SVG 1.1//EN"
 "http://www.w3.org/Graphics/SVG/1.1/DTD/svg11.dtd">
<!-- Generated by graphviz version 12.2.1 (20241206.2353)
 -->
<!-- Title: include/memory/DynArray.hpp Pages: 1 -->
<svg width="904pt" height="140pt"
 viewBox="0.00 0.00 903.75 140.00" xmlns="http://www.w3.org/2000/svg" xmlns:xlink="http://www.w3.org/1999/xlink">
<g id="graph0" class="graph" transform="scale(1 1) rotate(0) translate(4 136)">
<title>include/memory/DynArray.hpp</title>
<!-- Node1 -->
<g id="Node000001" class="node">
<title>Node1</title>
<g id="a_Node000001"><a xlink:title=" ">
<polygon fill="#999999" stroke="#666666" points="449.75,-132 302.5,-132 302.5,-112 449.75,-112 449.75,-132"/>
<text text-anchor="middle" x="376.12" y="-118.5" font-family="Helvetica,sans-Serif" font-size="10.00">include/memory/DynArray.hpp</text>
</a>
</g>
</g>
<!-- Node2 -->
<g id="Node000002" class="node">
<title>Node2</title>
<g id="a_Node000002"><a xlink:title=" ">
<polygon fill="#e0e0e0" stroke="#999999" points="48.25,-20 0,-20 0,0 48.25,0 48.25,-20"/>
<text text-anchor="middle" x="24.12" y="-6.5" font-family="Helvetica,sans-Serif" font-size="10.00">cstddef</text>
</a>
</g>
</g>
<!-- Node1&#45;&gt;Node2 -->
<g id="edge1_Node000001_Node000002" class="edge">
<title>Node1&#45;&gt;Node2</title>
<g id="a_edge1_Node000001_Node000002"><a xlink:title=" ">
<path fill="none" stroke="#63b8ff" d="M302.29,-120.28C244.03,-117.13 162.04,-106.86 97.12,-76 73.77,-64.9 52.36,-43.99 38.85,-28.87"/>
<polygon fill="#63b8ff" stroke="#63b8ff" points="41.67,-26.79 32.5,-21.5 36.37,-31.36 41.67,-26.79"/>
</a>
</g>
</g>
<!-- Node3 -->
<g id="Node000003" class="node">
<title>Node3</title>
<g id="a_Node000003"><a xlink:title=" ">
<polygon fill="#e0e0e0" stroke="#999999" points="111.75,-20 66.5,-20 66.5,0 111.75,0 111.75,-20"/>
<text text-anchor="middle" x="89.12" y="-6.5" font-family="Helvetica,sans-Serif" font-size="10.00">cstdint</text>
</a>
</g>
</g>
<!-- Node1&#45;&gt;Node3 -->
<g id="edge2_Node000001_Node000003" class="edge">
<title>Node1&#45;&gt;Node3</title>
<g id="a_edge2_Node000001_Node000003"><a xlink:title=" ">
<path fill="none" stroke="#63b8ff" d="M302.15,-116.09C235.64,-110.29 144.22,-98.45 116.12,-76 102.4,-65.03 95.58,-45.89 92.23,-31.21"/>
<polygon fill="#63b8ff" stroke="#63b8ff" points="95.73,-30.87 90.44,-21.69 88.85,-32.16 95.73,-30.87"/>
</a>
</g>
</g>
<!-- Node4 -->
<g id="Node000004" class="node">
<title>Node4</title>
<g id="a_Node000004"><a xlink:title=" ">
<polygon fill="#e0e0e0" stroke="#999999" points="178.25,-20 130,-20 130,0 178.25,0 178.25,-20"/>
<text text-anchor="middle" x="154.12" y="-6.5" font-family="Helvetica,sans-Serif" font-size="10.00">cassert</text>
</a>
</g>
</g>
<!-- Node1&#45;&gt;Node4 -->
<g id="edge3_Node000001_Node000004" class="edge">
<title>Node1&#45;&gt;Node4</title>
<g id="a_edge3_Node000001_Node000004"><a xlink:title=" ">
<path fill="none" stroke="#63b8ff" d="M302.24,-117.95C236.49,-113.51 147.39,-102.61 125.12,-76 113.42,-62.01 124.86,-42.53 136.65,-28.55"/>
<polygon fill="#63b8ff" stroke="#63b8ff" points="139.03,-31.14 143.18,-21.39 133.86,-26.42 139.03,-31.14"/>
</a>
</g>
</g>
<!-- Node5 -->
<g id="Node000005" class="node">
<title>Node5</title>
<g id="a_Node000005"><a xlink:title=" ">
<polygon fill="#e0e0e0" stroke="#999999" points="252,-20 196.25,-20 196.25,0 252,0 252,-20"/>
<text text-anchor="middle" x="224.12" y="-6.5" font-family="Helvetica,sans-Serif" font-size="10.00">expected</text>
</a>
</g>
</g>
<!-- Node1&#45;&gt;Node5 -->
<g id="edge4_Node000001_Node000005" class="edge">
<title>Node1&#45;&gt;Node5</title>
<g id="a_edge4_Node000001_Node000005"><a xlink:title=" ">
<path fill="none" stroke="#63b8ff" d="M363.17,-111.62C337.14,-92.79 278.27,-50.18 246.11,-26.91"/>
<polygon fill="#63b8ff" stroke="#63b8ff" points="248.43,-24.27 238.28,-21.24 244.33,-29.94 248.43,-24.27"/>
</a>
</g>
</g>
<!-- Node6 -->
<g id="Node000006" class="node">
<title>Node6</title>
<g id="a_Node000006"><a xlink:title=" ">
<polygon fill="#e0e0e0" stroke="#999999" points="335.88,-20 270.38,-20 270.38,0 335.88,0 335.88,-20"/>
<text text-anchor="middle" x="303.12" y="-6.5" font-family="Helvetica,sans-Serif" font-size="10.00">string_view</text>
</a>
</g>
</g>
<!-- Node1&#45;&gt;Node6 -->
<g id="edge5_Node000001_Node000006" class="edge">
<title>Node1&#45;&gt;Node6</title>
<g id="a_edge5_Node000001_Node000006"><a xlink:title=" ">
<path fill="none" stroke="#63b8ff" d="M369.9,-111.62C357.89,-93.52 331.3,-53.45 315.54,-29.7"/>
<polygon fill="#63b8ff" stroke="#63b8ff" points="318.62,-28.01 310.17,-21.62 312.78,-31.88 318.62,-28.01"/>
</a>
</g>
</g>
<!-- Node7 -->
<g id="Node000007" class="node">
<title>Node7</title>
<g id="a_Node000007"><a xlink:title=" ">
<polygon fill="#e0e0e0" stroke="#999999" points="404.75,-20 353.5,-20 353.5,0 404.75,0 404.75,-20"/>
<text text-anchor="middle" x="379.12" y="-6.5" font-family="Helvetica,sans-Serif" font-size="10.00">memory</text>
</a>
</g>
</g>
<!-- Node1&#45;&gt;Node7 -->
<g id="edge6_Node000001_Node000007" class="edge">
<title>Node1&#45;&gt;Node7</title>
<g id="a_edge6_Node000001_Node000007"><a xlink:title=" ">
<path fill="none" stroke="#63b8ff" d="M376.38,-111.62C376.86,-94.01 377.91,-55.59 378.56,-31.65"/>
<polygon fill="#63b8ff" stroke="#63b8ff" points="382.05,-31.96 378.83,-21.87 375.06,-31.77 382.05,-31.96"/>
</a>
</g>
</g>
<!-- Node8 -->
<g id="Node000008" class="node">
<title>Node8</title>
<g id="a_Node000008"><a xlink:title=" ">
<polygon fill="#e0e0e0" stroke="#999999" points="476.25,-76 404,-76 404,-56 476.25,-56 476.25,-76"/>
<text text-anchor="middle" x="440.12" y="-62.5" font-family="Helvetica,sans-Serif" font-size="10.00">initializer_list</text>
</a>
</g>
</g>
<!-- Node1&#45;&gt;Node8 -->
<g id="edge7_Node000001_Node000008" class="edge">
<title>Node1&#45;&gt;Node8</title>
<g id="a_edge7_Node000001_Node000008"><a xlink:title=" ">
<path fill="none" stroke="#63b8ff" d="M387.27,-111.59C396.45,-103.85 409.68,-92.69 420.61,-83.47"/>
<polygon fill="#63b8ff" stroke="#63b8ff" points="422.56,-86.4 427.95,-77.27 418.05,-81.05 422.56,-86.4"/>
</a>
</g>
</g>
<!-- Node9 -->
<g id="Node000009" class="node">
<title>Node9</title>
<g id="a_Node000009"><a xlink:title=" ">
<polygon fill="#e0e0e0" stroke="#999999" points="550,-76 494.25,-76 494.25,-56 550,-56 550,-76"/>
<text text-anchor="middle" x="522.12" y="-62.5" font-family="Helvetica,sans-Serif" font-size="10.00">algorithm</text>
</a>
</g>
</g>
<!-- Node1&#45;&gt;Node9 -->
<g id="edge8_Node000001_Node000009" class="edge">
<title>Node1&#45;&gt;Node9</title>
<g id="a_edge8_Node000001_Node000009"><a xlink:title=" ">
<path fill="none" stroke="#63b8ff" d="M401.56,-111.59C424.86,-102.97 459.62,-90.12 485.84,-80.42"/>
<polygon fill="#63b8ff" stroke="#63b8ff" points="486.91,-83.76 495.08,-77 484.48,-77.19 486.91,-83.76"/>
</a>
</g>
</g>
<!-- Node10 -->
<g id="Node000010" class="node">
<title>Node10</title>
<g id="a_Node000010"><a xlink:title=" ">
<polygon fill="#e0e0e0" stroke="#999999" points="626.5,-76 567.75,-76 567.75,-56 626.5,-56 626.5,-76"/>
<text text-anchor="middle" x="597.12" y="-62.5" font-family="Helvetica,sans-Serif" font-size="10.00">stdexcept</text>
</a>
</g>
</g>
<!-- Node1&#45;&gt;Node10 -->
<g id="edge9_Node000001_Node000010" class="edge">
<title>Node1&#45;&gt;Node10</title>
<g id="a_edge9_Node000001_Node000010"><a xlink:title=" ">
<path fill="none" stroke="#63b8ff" d="M414.87,-111.53C454.51,-101.85 515.83,-86.86 556.23,-76.99"/>
<polygon fill="#63b8ff" stroke="#63b8ff" points="556.93,-80.42 565.81,-74.65 555.27,-73.62 556.93,-80.42"/>
</a>
</g>
</g>
<!-- Node11 -->
<g id="Node000011" class="node">
<title>Node11</title>
<g id="a_Node000011"><a xlink:title=" ">
<polygon fill="#e0e0e0" stroke="#999999" points="690.12,-76 644.12,-76 644.12,-56 690.12,-56 690.12,-76"/>
<text text-anchor="middle" x="667.12" y="-62.5" font-family="Helvetica,sans-Serif" font-size="10.00">iterator</text>
</a>
</g>
</g>
<!-- Node1&#45;&gt;Node11 -->
<g id="edge10_Node000001_Node000011" class="edge">
<title>Node1&#45;&gt;Node11</title>
<g id="a_edge10_Node000001_Node000011"><a xlink:title=" ">
<path fill="none" stroke="#63b8ff" d="M441.69,-111.5C491.7,-103.83 562.49,-92.04 632.93,-76.32"/>
<polygon fill="#63b8ff" stroke="#63b8ff" points="633.32,-79.82 642.3,-74.2 631.77,-72.99 633.32,-79.82"/>
</a>
</g>
</g>
<!-- Node12 -->
<g id="Node000012" class="node">
<title>Node12</title>
<g id="a_Node000012"><a xlink:title=" ">
<polygon fill="#e0e0e0" stroke="#999999" points="766.12,-76 708.12,-76 708.12,-56 766.12,-56 766.12,-76"/>
<text text-anchor="middle" x="737.12" y="-62.5" font-family="Helvetica,sans-Serif" font-size="10.00">functional</text>
</a>
</g>
</g>
<!-- Node1&#45;&gt;Node12 -->
<g id="edge11_Node000001_Node000012" class="edge">
<title>Node1&#45;&gt;Node12</title>
<g id="a_edge11_Node000001_Node000012"><a xlink:title=" ">
<path fill="none" stroke="#63b8ff" d="M450.21,-112.69C513.26,-105.16 606.44,-92.95 696.48,-76.35"/>
<polygon fill="#63b8ff" stroke="#63b8ff" points="697.05,-79.81 706.24,-74.53 695.76,-72.92 697.05,-79.81"/>
</a>
</g>
</g>
<!-- Node13 -->
<g id="Node000013" class="node">
<title>Node13</title>
<g id="a_Node000013"><a xlink:href="_linear_allocator_8hpp.html" target="_top" xlink:title=" ">
<polygon fill="white" stroke="#666666" points="271.88,-76 134.38,-76 134.38,-56 271.88,-56 271.88,-76"/>
<text text-anchor="middle" x="203.12" y="-62.5" font-family="Helvetica,sans-Serif" font-size="10.00">memory/LinearAllocator.hpp</text>
</a>
</g>
</g>
<!-- Node1&#45;&gt;Node13 -->
<g id="edge12_Node000001_Node000013" class="edge">
<title>Node1&#45;&gt;Node13</title>
<g id="a_edge12_Node000001_Node000013"><a xlink:title=" ">
<path fill="none" stroke="#63b8ff" d="M345.99,-111.59C317.88,-102.82 275.71,-89.66 244.47,-79.9"/>
<polygon fill="#63b8ff" stroke="#63b8ff" points="245.53,-76.57 234.94,-76.93 243.44,-83.25 245.53,-76.57"/>
</a>
</g>
</g>
<!-- Node14 -->
<g id="Node000014" class="node">
<title>Node14</title>
<g id="a_Node000014"><a xlink:href="_dyn_array_8tpp.html" target="_top" xlink:title=" ">
<polygon fill="white" stroke="#666666" points="895.75,-76 784.5,-76 784.5,-56 895.75,-56 895.75,-76"/>
<text text-anchor="middle" x="840.12" y="-62.5" font-family="Helvetica,sans-Serif" font-size="10.00">memory/DynArray.tpp</text>
</a>
</g>
</g>
<!-- Node1&#45;&gt;Node14 -->
<g id="edge19_Node000001_Node000014" class="edge">
<title>Node1&#45;&gt;Node14</title>
<g id="a_edge19_Node000001_Node000014"><a xlink:title=" ">
<path fill="none" stroke="#63b8ff" d="M450.1,-113.22C527.82,-104.92 653.94,-91.09 772.99,-76.24"/>
<polygon fill="#63b8ff" stroke="#63b8ff" points="773.13,-79.75 782.62,-75.03 772.26,-72.8 773.13,-79.75"/>
</a>
</g>
</g>
<!-- Node13&#45;&gt;Node2 -->
<g id="edge13_Node000013_Node000002" class="edge">
<title>Node13&#45;&gt;Node2</title>
<g id="a_edge13_Node000013_Node000002"><a xlink:title=" ">
<path fill="none" stroke="#63b8ff" d="M171.95,-55.59C140.59,-46.13 92.3,-31.57 59.52,-21.68"/>
<polygon fill="#63b8ff" stroke="#63b8ff" points="60.66,-18.37 50.08,-18.83 58.64,-25.07 60.66,-18.37"/>
</a>
</g>
</g>
<!-- Node13&#45;&gt;Node3 -->
<g id="edge14_Node000013_Node000003" class="edge">
<title>Node13&#45;&gt;Node3</title>
<g id="a_edge14_Node000013_Node000003"><a xlink:title=" ">
<path fill="none" stroke="#63b8ff" d="M183.27,-55.59C165.64,-47.24 139.62,-34.92 119.4,-25.34"/>
<polygon fill="#63b8ff" stroke="#63b8ff" points="121.04,-22.25 110.51,-21.13 118.04,-28.57 121.04,-22.25"/>
</a>
</g>
</g>
<!-- Node13&#45;&gt;Node4 -->
<g id="edge15_Node000013_Node000004" class="edge">
<title>Node13&#45;&gt;Node4</title>
<g id="a_edge15_Node000013_Node000004"><a xlink:title=" ">
<path fill="none" stroke="#63b8ff" d="M194.59,-55.59C187.84,-48.16 178.24,-37.58 170.08,-28.58"/>
<polygon fill="#63b8ff" stroke="#63b8ff" points="172.89,-26.47 163.58,-21.42 167.71,-31.18 172.89,-26.47"/>
</a>
</g>
</g>
<!-- Node13&#45;&gt;Node5 -->
<g id="edge16_Node000013_Node000005" class="edge">
<title>Node13&#45;&gt;Node5</title>
<g id="a_edge16_Node000013_Node000005"><a xlink:title=" ">
<path fill="none" stroke="#63b8ff" d="M206.78,-55.59C209.43,-48.78 213.11,-39.32 216.4,-30.86"/>
<polygon fill="#63b8ff" stroke="#63b8ff" points="219.6,-32.3 219.96,-21.71 213.07,-29.76 219.6,-32.3"/>
</a>
</g>
</g>
<!-- Node13&#45;&gt;Node6 -->
<g id="edge17_Node000013_Node000006" class="edge">
<title>Node13&#45;&gt;Node6</title>
<g id="a_edge17_Node000013_Node000006"><a xlink:title=" ">
<path fill="none" stroke="#63b8ff" d="M220.54,-55.59C235.79,-47.36 258.2,-35.26 275.83,-25.74"/>
<polygon fill="#63b8ff" stroke="#63b8ff" points="277.1,-29.03 284.24,-21.2 273.78,-22.87 277.1,-29.03"/>
</a>
</g>
</g>
<!-- Node13&#45;&gt;Node7 -->
<g id="edge18_Node000013_Node000007" class="edge">
<title>Node13&#45;&gt;Node7</title>
<g id="a_edge18_Node000013_Node000007"><a xlink:title=" ">
<path fill="none" stroke="#63b8ff" d="M233.78,-55.59C264,-46.32 310.2,-32.15 342.37,-22.28"/>
<polygon fill="#63b8ff" stroke="#63b8ff" points="343.13,-25.7 351.67,-19.42 341.08,-19.01 343.13,-25.7"/>
</a>
</g>
</g>
</g>
</svg>
