<?xml version="1.0" encoding="UTF-8" standalone="no"?>
<!DOCTYPE svg PUBLIC "-//W3C//DTD SVG 1.1//EN"
 "http://www.w3.org/Graphics/SVG/1.1/DTD/svg11.dtd">
<!-- Generated by graphviz version 12.2.1 (20241206.2353)
 -->
<!-- Title: include/memory/LinearAllocator.hpp Pages: 1 -->
<svg width="328pt" height="84pt"
 viewBox="0.00 0.00 327.62 84.00" xmlns="http://www.w3.org/2000/svg" xmlns:xlink="http://www.w3.org/1999/xlink">
<g id="graph0" class="graph" transform="scale(1 1) rotate(0) translate(4 80)">
<title>include/memory/LinearAllocator.hpp</title>
<!-- Node1 -->
<g id="Node000001" class="node">
<title>Node1</title>
<g id="a_Node000001"><a xlink:title=" ">
<polygon fill="#999999" stroke="#666666" points="243.25,-76 72,-76 72,-56 243.25,-56 243.25,-76"/>
<text text-anchor="middle" x="157.62" y="-62.5" font-family="Helvetica,sans-Serif" font-size="10.00">include/memory/LinearAllocator.hpp</text>
</a>
</g>
</g>
<!-- Node2 -->
<g id="Node000002" class="node">
<title>Node2</title>
<g id="a_Node000002"><a xlink:href="_dyn_array_8hpp.html" target="_top" xlink:title=" ">
<polygon fill="white" stroke="#666666" points="147.25,-20 0,-20 0,0 147.25,0 147.25,-20"/>
<text text-anchor="middle" x="73.62" y="-6.5" font-family="Helvetica,sans-Serif" font-size="10.00">include/memory/DynArray.hpp</text>
</a>
</g>
</g>
<!-- Node1&#45;&gt;Node2 -->
<g id="edge1_Node000001_Node000002" class="edge">
<title>Node1&#45;&gt;Node2</title>
<g id="a_edge1_Node000001_Node000002"><a xlink:title=" ">
<path fill="none" stroke="#63b8ff" d="M133.58,-49.54C119,-40.17 100.86,-28.51 88.37,-20.48"/>
<polygon fill="#63b8ff" stroke="#63b8ff" points="131.42,-52.31 141.72,-54.78 135.2,-46.42 131.42,-52.31"/>
</a>
</g>
</g>
<!-- Node3 -->
<g id="Node000003" class="node">
<title>Node3</title>
<g id="a_Node000003"><a xlink:href="_linear_allocator_8cpp.html" target="_top" xlink:title=" ">
<polygon fill="white" stroke="#666666" points="319.62,-20 165.62,-20 165.62,0 319.62,0 319.62,-20"/>
<text text-anchor="middle" x="242.62" y="-6.5" font-family="Helvetica,sans-Serif" font-size="10.00">src/memory/LinearAllocator.cpp</text>
</a>
</g>
</g>
<!-- Node1&#45;&gt;Node3 -->
<g id="edge2_Node000001_Node000003" class="edge">
<title>Node1&#45;&gt;Node3</title>
<g id="a_edge2_Node000001_Node000003"><a xlink:title=" ">
<path fill="none" stroke="#63b8ff" d="M181.96,-49.54C196.71,-40.17 215.07,-28.51 227.7,-20.48"/>
<polygon fill="#63b8ff" stroke="#63b8ff" points="180.27,-46.47 173.71,-54.78 184.03,-52.37 180.27,-46.47"/>
</a>
</g>
</g>
</g>
</svg>
