<?xml version="1.0" encoding="UTF-8" standalone="no"?>
<!DOCTYPE svg PUBLIC "-//W3C//DTD SVG 1.1//EN"
 "http://www.w3.org/Graphics/SVG/1.1/DTD/svg11.dtd">
<!-- Generated by graphviz version 12.2.1 (20241206.2353)
 -->
<!-- Title: memory::LinearAllocator::is_power_of_two Pages: 1 -->
<svg width="761pt" height="90pt"
 viewBox="0.00 0.00 760.75 90.00" xmlns="http://www.w3.org/2000/svg" xmlns:xlink="http://www.w3.org/1999/xlink">
<g id="graph0" class="graph" transform="scale(1 1) rotate(0) translate(4 86)">
<title>memory::LinearAllocator::is_power_of_two</title>
<!-- Node1 -->
<g id="Node000001" class="node">
<title>Node1</title>
<g id="a_Node000001"><a xlink:title="Check if a value is a power of two.">
<polygon fill="#999999" stroke="#666666" points="752.75,-54 631,-54 631,-22 752.75,-22 752.75,-54"/>
<text text-anchor="start" x="639" y="-40.5" font-family="Helvetica,sans-Serif" font-size="10.00">memory::LinearAllocator</text>
<text text-anchor="middle" x="691.88" y="-28.5" font-family="Helvetica,sans-Serif" font-size="10.00">::is_power_of_two</text>
</a>
</g>
</g>
<!-- Node2 -->
<g id="Node000002" class="node">
<title>Node2</title>
<g id="a_Node000002"><a xlink:href="structmemory_1_1_linear_allocator.html#a3ce93f925bd3be6838579eebc13d4425" target="_top" xlink:title="Align a memory address forward to the specified alignment.">
<polygon fill="white" stroke="#666666" points="595,-76 473.25,-76 473.25,-44 595,-44 595,-76"/>
<text text-anchor="start" x="481.25" y="-62.5" font-family="Helvetica,sans-Serif" font-size="10.00">memory::LinearAllocator</text>
<text text-anchor="middle" x="534.12" y="-50.5" font-family="Helvetica,sans-Serif" font-size="10.00">::align_forward</text>
</a>
</g>
</g>
<!-- Node1&#45;&gt;Node2 -->
<g id="edge1_Node000001_Node000002" class="edge">
<title>Node1&#45;&gt;Node2</title>
<g id="a_edge1_Node000001_Node000002"><a xlink:title=" ">
<path fill="none" stroke="#63b8ff" d="M619.42,-48.09C611.4,-49.23 603.3,-50.37 595.44,-51.48"/>
<polygon fill="#63b8ff" stroke="#63b8ff" points="619.75,-51.58 629.16,-46.72 618.77,-44.65 619.75,-51.58"/>
</a>
</g>
</g>
<!-- Node6 -->
<g id="Node000006" class="node">
<title>Node6</title>
<g id="a_Node000006"><a xlink:href="structmemory_1_1_linear_allocator.html#a0a256fd4cfa9d3176e8411514a904584" target="_top" xlink:title="Resize an existing allocation with alignment.">
<polygon fill="white" stroke="#666666" points="279.5,-32 157.75,-32 157.75,0 279.5,0 279.5,-32"/>
<text text-anchor="start" x="165.75" y="-18.5" font-family="Helvetica,sans-Serif" font-size="10.00">memory::LinearAllocator</text>
<text text-anchor="middle" x="218.62" y="-6.5" font-family="Helvetica,sans-Serif" font-size="10.00">::resize_align</text>
</a>
</g>
</g>
<!-- Node1&#45;&gt;Node6 -->
<g id="edge7_Node000001_Node000006" class="edge">
<title>Node1&#45;&gt;Node6</title>
<g id="a_edge7_Node000001_Node000006"><a xlink:title=" ">
<path fill="none" stroke="#63b8ff" d="M619.48,-34.67C526.78,-30.34 366.63,-22.86 279.8,-18.81"/>
<polygon fill="#63b8ff" stroke="#63b8ff" points="619.05,-38.15 629.2,-35.12 619.37,-31.16 619.05,-38.15"/>
</a>
</g>
</g>
<!-- Node3 -->
<g id="Node000003" class="node">
<title>Node3</title>
<g id="a_Node000003"><a xlink:href="structmemory_1_1_linear_allocator.html#a61f9f2cd2e3d67d66d6e3d22bf363b8a" target="_top" xlink:title="Allocate memory with alignment.">
<polygon fill="white" stroke="#666666" points="437.25,-76 315.5,-76 315.5,-44 437.25,-44 437.25,-76"/>
<text text-anchor="start" x="323.5" y="-62.5" font-family="Helvetica,sans-Serif" font-size="10.00">memory::LinearAllocator</text>
<text text-anchor="middle" x="376.38" y="-50.5" font-family="Helvetica,sans-Serif" font-size="10.00">::alloc_align</text>
</a>
</g>
</g>
<!-- Node2&#45;&gt;Node3 -->
<g id="edge2_Node000002_Node000003" class="edge">
<title>Node2&#45;&gt;Node3</title>
<g id="a_edge2_Node000002_Node000003"><a xlink:title=" ">
<path fill="none" stroke="#63b8ff" d="M461.67,-60C453.65,-60 445.55,-60 437.69,-60"/>
<polygon fill="#63b8ff" stroke="#63b8ff" points="461.39,-63.5 471.39,-60 461.39,-56.5 461.39,-63.5"/>
</a>
</g>
</g>
<!-- Node4 -->
<g id="Node000004" class="node">
<title>Node4</title>
<g id="a_Node000004"><a xlink:href="structmemory_1_1_linear_allocator.html#a77f99e7f70ea5e26185ed4961f5edc2c" target="_top" xlink:title="Allocate memory with default alignment.">
<polygon fill="white" stroke="#666666" points="279.5,-82 157.75,-82 157.75,-50 279.5,-50 279.5,-82"/>
<text text-anchor="start" x="165.75" y="-68.5" font-family="Helvetica,sans-Serif" font-size="10.00">memory::LinearAllocator</text>
<text text-anchor="middle" x="218.62" y="-56.5" font-family="Helvetica,sans-Serif" font-size="10.00">::alloc</text>
</a>
</g>
</g>
<!-- Node3&#45;&gt;Node4 -->
<g id="edge3_Node000003_Node000004" class="edge">
<title>Node3&#45;&gt;Node4</title>
<g id="a_edge3_Node000003_Node000004"><a xlink:title=" ">
<path fill="none" stroke="#63b8ff" d="M303.92,-62.75C295.9,-63.06 287.8,-63.37 279.94,-63.68"/>
<polygon fill="#63b8ff" stroke="#63b8ff" points="303.79,-66.26 313.65,-62.38 303.52,-59.27 303.79,-66.26"/>
</a>
</g>
</g>
<!-- Node3&#45;&gt;Node6 -->
<g id="edge5_Node000003_Node000006" class="edge">
<title>Node3&#45;&gt;Node6</title>
<g id="a_edge5_Node000003_Node000006"><a xlink:title=" ">
<path fill="none" stroke="#63b8ff" d="M306.36,-40.5C296.87,-37.82 287.2,-35.09 277.93,-32.47"/>
<polygon fill="#63b8ff" stroke="#63b8ff" points="305.35,-43.85 315.92,-43.2 307.25,-37.12 305.35,-43.85"/>
</a>
</g>
</g>
<!-- Node5 -->
<g id="Node000005" class="node">
<title>Node5</title>
<g id="a_Node000005"><a xlink:href="structmemory_1_1_linear_allocator.html#a664258ba91ee24095f7b988abb2b5f1e" target="_top" xlink:title="Allocate memory for a specific type with default alignment.">
<polygon fill="white" stroke="#666666" points="121.75,-82 0,-82 0,-50 121.75,-50 121.75,-82"/>
<text text-anchor="start" x="8" y="-68.5" font-family="Helvetica,sans-Serif" font-size="10.00">memory::LinearAllocator</text>
<text text-anchor="middle" x="60.88" y="-56.5" font-family="Helvetica,sans-Serif" font-size="10.00">::alloc</text>
</a>
</g>
</g>
<!-- Node4&#45;&gt;Node5 -->
<g id="edge4_Node000004_Node000005" class="edge">
<title>Node4&#45;&gt;Node5</title>
<g id="a_edge4_Node000004_Node000005"><a xlink:title=" ">
<path fill="none" stroke="#63b8ff" d="M146.17,-66C138.15,-66 130.05,-66 122.19,-66"/>
<polygon fill="#63b8ff" stroke="#63b8ff" points="145.89,-69.5 155.89,-66 145.89,-62.5 145.89,-69.5"/>
</a>
</g>
</g>
<!-- Node7 -->
<g id="Node000007" class="node">
<title>Node7</title>
<g id="a_Node000007"><a xlink:href="structmemory_1_1_linear_allocator.html#abb9adc8844af9458d03e7d8233cb379e" target="_top" xlink:title="Resize an existing allocation with default alignment.">
<polygon fill="white" stroke="#666666" points="121.75,-32 0,-32 0,0 121.75,0 121.75,-32"/>
<text text-anchor="start" x="8" y="-18.5" font-family="Helvetica,sans-Serif" font-size="10.00">memory::LinearAllocator</text>
<text text-anchor="middle" x="60.88" y="-6.5" font-family="Helvetica,sans-Serif" font-size="10.00">::resize</text>
</a>
</g>
</g>
<!-- Node6&#45;&gt;Node7 -->
<g id="edge6_Node000006_Node000007" class="edge">
<title>Node6&#45;&gt;Node7</title>
<g id="a_edge6_Node000006_Node000007"><a xlink:title=" ">
<path fill="none" stroke="#63b8ff" d="M146.17,-16C138.15,-16 130.05,-16 122.19,-16"/>
<polygon fill="#63b8ff" stroke="#63b8ff" points="145.89,-19.5 155.89,-16 145.89,-12.5 145.89,-19.5"/>
</a>
</g>
</g>
</g>
</svg>
