<?xml version="1.0" encoding="UTF-8" standalone="no"?>
<!DOCTYPE svg PUBLIC "-//W3C//DTD SVG 1.1//EN"
 "http://www.w3.org/Graphics/SVG/1.1/DTD/svg11.dtd">
<!-- Generated by graphviz version 12.2.1 (20241206.2353)
 -->
<!-- Title: memory::LinearAllocator::resize Pages: 1 -->
<svg width="761pt" height="62pt"
 viewBox="0.00 0.00 760.75 62.00" xmlns="http://www.w3.org/2000/svg" xmlns:xlink="http://www.w3.org/1999/xlink">
<g id="graph0" class="graph" transform="scale(1 1) rotate(0) translate(4 58)">
<title>memory::LinearAllocator::resize</title>
<!-- Node1 -->
<g id="Node000001" class="node">
<title>Node1</title>
<g id="a_Node000001"><a xlink:title="Resize an existing allocation with default alignment.">
<polygon fill="#999999" stroke="#666666" points="121.75,-32 0,-32 0,0 121.75,0 121.75,-32"/>
<text text-anchor="start" x="8" y="-18.5" font-family="Helvetica,sans-Serif" font-size="10.00">memory::LinearAllocator</text>
<text text-anchor="middle" x="60.88" y="-6.5" font-family="Helvetica,sans-Serif" font-size="10.00">::resize</text>
</a>
</g>
</g>
<!-- Node2 -->
<g id="Node000002" class="node">
<title>Node2</title>
<g id="a_Node000002"><a xlink:href="structmemory_1_1_linear_allocator.html#a0a256fd4cfa9d3176e8411514a904584" target="_top" xlink:title="Resize an existing allocation with alignment.">
<polygon fill="white" stroke="#666666" points="279.5,-32 157.75,-32 157.75,0 279.5,0 279.5,-32"/>
<text text-anchor="start" x="165.75" y="-18.5" font-family="Helvetica,sans-Serif" font-size="10.00">memory::LinearAllocator</text>
<text text-anchor="middle" x="218.62" y="-6.5" font-family="Helvetica,sans-Serif" font-size="10.00">::resize_align</text>
</a>
</g>
</g>
<!-- Node1&#45;&gt;Node2 -->
<g id="edge1_Node000001_Node000002" class="edge">
<title>Node1&#45;&gt;Node2</title>
<g id="a_edge1_Node000001_Node000002"><a xlink:title=" ">
<path fill="none" stroke="#63b8ff" d="M122.09,-16C129.95,-16 138.05,-16 146.07,-16"/>
<polygon fill="#63b8ff" stroke="#63b8ff" points="145.8,-19.5 155.8,-16 145.8,-12.5 145.8,-19.5"/>
</a>
</g>
</g>
<!-- Node3 -->
<g id="Node000003" class="node">
<title>Node3</title>
<g id="a_Node000003"><a xlink:href="structmemory_1_1_linear_allocator.html#a61f9f2cd2e3d67d66d6e3d22bf363b8a" target="_top" xlink:title="Allocate memory with alignment.">
<polygon fill="white" stroke="#666666" points="437.25,-54 315.5,-54 315.5,-22 437.25,-22 437.25,-54"/>
<text text-anchor="start" x="323.5" y="-40.5" font-family="Helvetica,sans-Serif" font-size="10.00">memory::LinearAllocator</text>
<text text-anchor="middle" x="376.38" y="-28.5" font-family="Helvetica,sans-Serif" font-size="10.00">::alloc_align</text>
</a>
</g>
</g>
<!-- Node2&#45;&gt;Node3 -->
<g id="edge2_Node000002_Node000003" class="edge">
<title>Node2&#45;&gt;Node3</title>
<g id="a_edge2_Node000002_Node000003"><a xlink:title=" ">
<path fill="none" stroke="#63b8ff" d="M279.84,-24.51C287.7,-25.62 295.8,-26.76 303.82,-27.89"/>
<polygon fill="#63b8ff" stroke="#63b8ff" points="303.17,-31.34 313.56,-29.27 304.15,-24.4 303.17,-31.34"/>
</a>
</g>
</g>
<!-- Node5 -->
<g id="Node000005" class="node">
<title>Node5</title>
<g id="a_Node000005"><a xlink:href="structmemory_1_1_linear_allocator.html#a81c611e8217e9c10505d172354c4e179" target="_top" xlink:title="Check if a value is a power of two.">
<polygon fill="white" stroke="#666666" points="752.75,-32 631,-32 631,0 752.75,0 752.75,-32"/>
<text text-anchor="start" x="639" y="-18.5" font-family="Helvetica,sans-Serif" font-size="10.00">memory::LinearAllocator</text>
<text text-anchor="middle" x="691.88" y="-6.5" font-family="Helvetica,sans-Serif" font-size="10.00">::is_power_of_two</text>
</a>
</g>
</g>
<!-- Node2&#45;&gt;Node5 -->
<g id="edge5_Node000002_Node000005" class="edge">
<title>Node2&#45;&gt;Node5</title>
<g id="a_edge5_Node000002_Node000005"><a xlink:title=" ">
<path fill="none" stroke="#63b8ff" d="M279.97,-13.82C291.75,-13.48 304.01,-13.18 315.5,-13 439.71,-11.06 470.79,-11.06 595,-13 602.81,-13.12 610.97,-13.3 619.1,-13.51"/>
<polygon fill="#63b8ff" stroke="#63b8ff" points="618.93,-17.01 629.02,-13.78 619.12,-10.01 618.93,-17.01"/>
</a>
</g>
</g>
<!-- Node4 -->
<g id="Node000004" class="node">
<title>Node4</title>
<g id="a_Node000004"><a xlink:href="structmemory_1_1_linear_allocator.html#a3ce93f925bd3be6838579eebc13d4425" target="_top" xlink:title="Align a memory address forward to the specified alignment.">
<polygon fill="white" stroke="#666666" points="595,-54 473.25,-54 473.25,-22 595,-22 595,-54"/>
<text text-anchor="start" x="481.25" y="-40.5" font-family="Helvetica,sans-Serif" font-size="10.00">memory::LinearAllocator</text>
<text text-anchor="middle" x="534.12" y="-28.5" font-family="Helvetica,sans-Serif" font-size="10.00">::align_forward</text>
</a>
</g>
</g>
<!-- Node3&#45;&gt;Node4 -->
<g id="edge3_Node000003_Node000004" class="edge">
<title>Node3&#45;&gt;Node4</title>
<g id="a_edge3_Node000003_Node000004"><a xlink:title=" ">
<path fill="none" stroke="#63b8ff" d="M437.59,-38C445.45,-38 453.55,-38 461.57,-38"/>
<polygon fill="#63b8ff" stroke="#63b8ff" points="461.3,-41.5 471.3,-38 461.3,-34.5 461.3,-41.5"/>
</a>
</g>
</g>
<!-- Node4&#45;&gt;Node5 -->
<g id="edge4_Node000004_Node000005" class="edge">
<title>Node4&#45;&gt;Node5</title>
<g id="a_edge4_Node000004_Node000005"><a xlink:title=" ">
<path fill="none" stroke="#63b8ff" d="M595.34,-29.49C603.2,-28.38 611.3,-27.24 619.32,-26.11"/>
<polygon fill="#63b8ff" stroke="#63b8ff" points="619.65,-29.6 629.06,-24.73 618.67,-22.66 619.65,-29.6"/>
</a>
</g>
</g>
</g>
</svg>
