<?xml version="1.0" encoding="UTF-8" standalone="no"?>
<!DOCTYPE svg PUBLIC "-//W3C//DTD SVG 1.1//EN"
 "http://www.w3.org/Graphics/SVG/1.1/DTD/svg11.dtd">
<!-- Generated by graphviz version 12.2.1 (20241206.2353)
 -->
<!-- Title: memory::LinearAllocator::is_power_of_two Pages: 1 -->
<!--zoomable 90 -->

<svg id="main" version="1.1" xmlns="http://www.w3.org/2000/svg" xmlns:xlink="http://www.w3.org/1999/xlink" xml:space="preserve" onload="init(evt)">

<style type="text/css"><![CDATA[
.node, .edge {opacity: 0.7;}
.node.selected, .edge.selected {opacity: 1;}
.edge:hover path { stroke: red; }
.edge:hover polygon { stroke: red; fill: red; }
]]></style>

<defs>
  <circle id="rim" cx="0" cy="0" r="7"/>
  <circle id="rim2" cx="0" cy="0" r="3.5"/>
  <g id="zoomPlus">
    <use xlink:href="#rim" fill="#404040"><set attributeName="fill" to="#808080" begin="zoomplus.mouseover" end="zoomplus.mouseout"/></use>
    <path d="M-4,0h8M0,-4v8" fill="none" stroke="white" stroke-width="1.5" pointer-events="none"/>
  </g>
  <g id="zoomMin">
    <use xlink:href="#rim" fill="#404040"><set attributeName="fill" to="#808080" begin="zoomminus.mouseover" end="zoomminus.mouseout"/></use>
    <path d="M-4,0h8" fill="none" stroke="white" stroke-width="1.5" pointer-events="none"/>
  </g>
  <g id="arrowUp" transform="translate(30 24)">
    <use xlink:href="#rim"/>
    <path pointer-events="none" fill="none" stroke="white" stroke-width="1.5" d="M0,-3.0v7 M-2.5,-0.5L0,-3.0L2.5,-0.5"/>
  </g>
  <g id="arrowRight" transform="rotate(90) translate(36 -43)">
    <use xlink:href="#rim"/>
    <path pointer-events="none" fill="none" stroke="white" stroke-width="1.5" d="M0,-3.0v7 M-2.5,-0.5L0,-3.0L2.5,-0.5"/>
  </g>
  <g id="arrowDown" transform="rotate(180) translate(-30 -48)">
    <use xlink:href="#rim"/>
    <path pointer-events="none" fill="none" stroke="white" stroke-width="1.5" d="M0,-3.0v7 M-2.5,-0.5L0,-3.0L2.5,-0.5"/>
  </g>
  <g id="arrowLeft" transform="rotate(270) translate(-36 17)">
    <use xlink:href="#rim"/>
    <path pointer-events="none" fill="none" stroke="white" stroke-width="1.5" d="M0,-3.0v7 M-2.5,-0.5L0,-3.0L2.5,-0.5"/>
  </g>
  <g id="resetDef">
    <use xlink:href="#rim2" fill="#404040"><set attributeName="fill" to="#808080" begin="reset.mouseover" end="reset.mouseout"/></use>
  </g>
</defs>
<script type="application/ecmascript">
var viewWidth = 761;
var viewHeight = 90;
var sectionId = 'dynsection-8';
</script>
<script type="application/ecmascript" xlink:href="svg.min.js"/>
<svg id="graph" class="graph">
<g id="viewport">
<title>memory::LinearAllocator::is_power_of_two</title>
<!-- Node1 -->
<g id="Node000001" class="node">
<title>Node1</title>
<g id="a_Node000001"><a xlink:title="Check if a value is a power of two.">
<polygon fill="#999999" stroke="#666666" points="752.75,-54 631,-54 631,-22 752.75,-22 752.75,-54"/>
<text text-anchor="start" x="639" y="-40.5" font-family="Helvetica,sans-Serif" font-size="10.00">memory::LinearAllocator</text>
<text text-anchor="middle" x="691.88" y="-28.5" font-family="Helvetica,sans-Serif" font-size="10.00">::is_power_of_two</text>
</a>
</g>
</g>
<!-- Node2 -->
<g id="Node000002" class="node">
<title>Node2</title>
<g id="a_Node000002"><a xlink:href="structmemory_1_1_linear_allocator.html#a3ce93f925bd3be6838579eebc13d4425" target="_top" xlink:title="Align a memory address forward to the specified alignment.">
<polygon fill="white" stroke="#666666" points="595,-76 473.25,-76 473.25,-44 595,-44 595,-76"/>
<text text-anchor="start" x="481.25" y="-62.5" font-family="Helvetica,sans-Serif" font-size="10.00">memory::LinearAllocator</text>
<text text-anchor="middle" x="534.12" y="-50.5" font-family="Helvetica,sans-Serif" font-size="10.00">::align_forward</text>
</a>
</g>
</g>
<!-- Node1&#45;&gt;Node2 -->
<g id="edge1_Node000001_Node000002" class="edge">
<title>Node1&#45;&gt;Node2</title>
<g id="a_edge1_Node000001_Node000002"><a xlink:title=" ">
<path fill="none" stroke="#63b8ff" d="M619.42,-48.09C611.4,-49.23 603.3,-50.37 595.44,-51.48"/>
<polygon fill="#63b8ff" stroke="#63b8ff" points="619.75,-51.58 629.16,-46.72 618.77,-44.65 619.75,-51.58"/>
</a>
</g>
</g>
<!-- Node6 -->
<g id="Node000006" class="node">
<title>Node6</title>
<g id="a_Node000006"><a xlink:href="structmemory_1_1_linear_allocator.html#a0a256fd4cfa9d3176e8411514a904584" target="_top" xlink:title="Resize an existing allocation with alignment.">
<polygon fill="white" stroke="#666666" points="279.5,-32 157.75,-32 157.75,0 279.5,0 279.5,-32"/>
<text text-anchor="start" x="165.75" y="-18.5" font-family="Helvetica,sans-Serif" font-size="10.00">memory::LinearAllocator</text>
<text text-anchor="middle" x="218.62" y="-6.5" font-family="Helvetica,sans-Serif" font-size="10.00">::resize_align</text>
</a>
</g>
</g>
<!-- Node1&#45;&gt;Node6 -->
<g id="edge7_Node000001_Node000006" class="edge">
<title>Node1&#45;&gt;Node6</title>
<g id="a_edge7_Node000001_Node000006"><a xlink:title=" ">
<path fill="none" stroke="#63b8ff" d="M619.48,-34.67C526.78,-30.34 366.63,-22.86 279.8,-18.81"/>
<polygon fill="#63b8ff" stroke="#63b8ff" points="619.05,-38.15 629.2,-35.12 619.37,-31.16 619.05,-38.15"/>
</a>
</g>
</g>
<!-- Node3 -->
<g id="Node000003" class="node">
<title>Node3</title>
<g id="a_Node000003"><a xlink:href="structmemory_1_1_linear_allocator.html#a61f9f2cd2e3d67d66d6e3d22bf363b8a" target="_top" xlink:title="Allocate memory with alignment.">
<polygon fill="white" stroke="#666666" points="437.25,-76 315.5,-76 315.5,-44 437.25,-44 437.25,-76"/>
<text text-anchor="start" x="323.5" y="-62.5" font-family="Helvetica,sans-Serif" font-size="10.00">memory::LinearAllocator</text>
<text text-anchor="middle" x="376.38" y="-50.5" font-family="Helvetica,sans-Serif" font-size="10.00">::alloc_align</text>
</a>
</g>
</g>
<!-- Node2&#45;&gt;Node3 -->
<g id="edge2_Node000002_Node000003" class="edge">
<title>Node2&#45;&gt;Node3</title>
<g id="a_edge2_Node000002_Node000003"><a xlink:title=" ">
<path fill="none" stroke="#63b8ff" d="M461.67,-60C453.65,-60 445.55,-60 437.69,-60"/>
<polygon fill="#63b8ff" stroke="#63b8ff" points="461.39,-63.5 471.39,-60 461.39,-56.5 461.39,-63.5"/>
</a>
</g>
</g>
<!-- Node4 -->
<g id="Node000004" class="node">
<title>Node4</title>
<g id="a_Node000004"><a xlink:href="structmemory_1_1_linear_allocator.html#a77f99e7f70ea5e26185ed4961f5edc2c" target="_top" xlink:title="Allocate memory with default alignment.">
<polygon fill="white" stroke="#666666" points="279.5,-82 157.75,-82 157.75,-50 279.5,-50 279.5,-82"/>
<text text-anchor="start" x="165.75" y="-68.5" font-family="Helvetica,sans-Serif" font-size="10.00">memory::LinearAllocator</text>
<text text-anchor="middle" x="218.62" y="-56.5" font-family="Helvetica,sans-Serif" font-size="10.00">::alloc</text>
</a>
</g>
</g>
<!-- Node3&#45;&gt;Node4 -->
<g id="edge3_Node000003_Node000004" class="edge">
<title>Node3&#45;&gt;Node4</title>
<g id="a_edge3_Node000003_Node000004"><a xlink:title=" ">
<path fill="none" stroke="#63b8ff" d="M303.92,-62.75C295.9,-63.06 287.8,-63.37 279.94,-63.68"/>
<polygon fill="#63b8ff" stroke="#63b8ff" points="303.79,-66.26 313.65,-62.38 303.52,-59.27 303.79,-66.26"/>
</a>
</g>
</g>
<!-- Node3&#45;&gt;Node6 -->
<g id="edge5_Node000003_Node000006" class="edge">
<title>Node3&#45;&gt;Node6</title>
<g id="a_edge5_Node000003_Node000006"><a xlink:title=" ">
<path fill="none" stroke="#63b8ff" d="M306.36,-40.5C296.87,-37.82 287.2,-35.09 277.93,-32.47"/>
<polygon fill="#63b8ff" stroke="#63b8ff" points="305.35,-43.85 315.92,-43.2 307.25,-37.12 305.35,-43.85"/>
</a>
</g>
</g>
<!-- Node5 -->
<g id="Node000005" class="node">
<title>Node5</title>
<g id="a_Node000005"><a xlink:href="structmemory_1_1_linear_allocator.html#a664258ba91ee24095f7b988abb2b5f1e" target="_top" xlink:title="Allocate memory for a specific type with default alignment.">
<polygon fill="white" stroke="#666666" points="121.75,-82 0,-82 0,-50 121.75,-50 121.75,-82"/>
<text text-anchor="start" x="8" y="-68.5" font-family="Helvetica,sans-Serif" font-size="10.00">memory::LinearAllocator</text>
<text text-anchor="middle" x="60.88" y="-56.5" font-family="Helvetica,sans-Serif" font-size="10.00">::alloc</text>
</a>
</g>
</g>
<!-- Node4&#45;&gt;Node5 -->
<g id="edge4_Node000004_Node000005" class="edge">
<title>Node4&#45;&gt;Node5</title>
<g id="a_edge4_Node000004_Node000005"><a xlink:title=" ">
<path fill="none" stroke="#63b8ff" d="M146.17,-66C138.15,-66 130.05,-66 122.19,-66"/>
<polygon fill="#63b8ff" stroke="#63b8ff" points="145.89,-69.5 155.89,-66 145.89,-62.5 145.89,-69.5"/>
</a>
</g>
</g>
<!-- Node7 -->
<g id="Node000007" class="node">
<title>Node7</title>
<g id="a_Node000007"><a xlink:href="structmemory_1_1_linear_allocator.html#abb9adc8844af9458d03e7d8233cb379e" target="_top" xlink:title="Resize an existing allocation with default alignment.">
<polygon fill="white" stroke="#666666" points="121.75,-32 0,-32 0,0 121.75,0 121.75,-32"/>
<text text-anchor="start" x="8" y="-18.5" font-family="Helvetica,sans-Serif" font-size="10.00">memory::LinearAllocator</text>
<text text-anchor="middle" x="60.88" y="-6.5" font-family="Helvetica,sans-Serif" font-size="10.00">::resize</text>
</a>
</g>
</g>
<!-- Node6&#45;&gt;Node7 -->
<g id="edge6_Node000006_Node000007" class="edge">
<title>Node6&#45;&gt;Node7</title>
<g id="a_edge6_Node000006_Node000007"><a xlink:title=" ">
<path fill="none" stroke="#63b8ff" d="M146.17,-16C138.15,-16 130.05,-16 122.19,-16"/>
<polygon fill="#63b8ff" stroke="#63b8ff" points="145.89,-19.5 155.89,-16 145.89,-12.5 145.89,-19.5"/>
</a>
</g>
</g>
</g>
</svg>

<g id="navigator" transform="translate(0 0)" fill="#404254">
  <rect fill="#f2f5e9" fill-opacity="0.5" stroke="#606060" stroke-width=".5" x="0" y="0" width="60" height="60"/>
  <use id="zoomplus" xlink:href="#zoomPlus" x="17" y="9" onmousedown="handleZoom(evt,'in')"/>
  <use id="zoomminus" xlink:href="#zoomMin" x="42" y="9" onmousedown="handleZoom(evt,'out')"/>
  <use id="reset" xlink:href="#resetDef" x="30" y="36" onmousedown="handleReset()"/>
   <use id="arrowup" xlink:href="#arrowUp" x="0" y="0" onmousedown="handlePan(0,-1)"/>
  <use id="arrowright" xlink:href="#arrowRight" x="0" y="0" onmousedown="handlePan(1,0)"/>
  <use id="arrowdown" xlink:href="#arrowDown" x="0" y="0" onmousedown="handlePan(0,1)"/>
  <use id="arrowleft" xlink:href="#arrowLeft" x="0" y="0" onmousedown="handlePan(-1,0)"/>
</g>
<svg viewBox="0 0 15 15" width="100%" height="30px" preserveAspectRatio="xMaxYMin meet">
 <g id="arrow_out" transform="scale(0.3 0.3)">
  <a xlink:href="structmemory_1_1_linear_allocator_a81c611e8217e9c10505d172354c4e179_icgraph_org.svg" target="_base">
   <rect id="button" ry="5" rx="5" y="6" x="6" height="38" width="38"
        fill="#f2f5e9" fill-opacity="0.5" stroke="#606060" stroke-width="1.0"/>
   <path id="arrow"
     d="M 11.500037,31.436501 C 11.940474,20.09759 22.043105,11.32322 32.158766,21.979434 L 37.068811,17.246167 C 37.068811,17.246167 37.088388,32 37.088388,32 L 22.160133,31.978069 C 22.160133,31.978069 26.997745,27.140456 26.997745,27.140456 C 18.528582,18.264221 13.291696,25.230495 11.500037,31.436501 z"
     style="fill:#404040;"/>
  </a>
 </g>
</svg>

<style type='text/css'>
<![CDATA[
[data-mouse-over-selected='false'] { opacity: 0.7; }
[data-mouse-over-selected='true']  { opacity: 1.0; }
]]>
</style>
<script type="application/ecmascript"><![CDATA[
document.addEventListener('DOMContentLoaded', (event) => {
  highlightEdges();
  highlightAdjacentNodes();
});
]]></script>
</svg>
