<?xml version="1.0" encoding="UTF-8" standalone="no"?>
<!DOCTYPE svg PUBLIC "-//W3C//DTD SVG 1.1//EN"
 "http://www.w3.org/Graphics/SVG/1.1/DTD/svg11.dtd">
<!-- Generated by graphviz version 12.2.1 (20241206.2353)
 -->
<!-- Title: memory::DynArray&lt; T &gt; Pages: 1 -->
<svg width="134pt" height="624pt"
 viewBox="0.00 0.00 134.00 624.00" xmlns="http://www.w3.org/2000/svg" xmlns:xlink="http://www.w3.org/1999/xlink">
<g id="graph0" class="graph" transform="scale(1 1) rotate(0) translate(4 620)">
<title>memory::DynArray&lt; T &gt;</title>
<!-- Node1 -->
<g id="Node000001" class="node">
<title>Node1</title>
<g id="a_Node000001"><a xlink:title="Dynamic array implementation with custom allocator support.">
<polygon fill="#999999" stroke="none" points="121.88,-308 4.12,-308 4.12,0 121.88,0 121.88,-308"/>
<text text-anchor="start" x="10.12" y="-294.5" font-family="Helvetica,sans-Serif" font-size="10.00">memory::DynArray&lt; T &gt;</text>
<text text-anchor="start" x="8.12" y="-278.5" font-family="Helvetica,sans-Serif" font-size="10.00">+</text>
<text text-anchor="start" x="18.12" y="-278.5" font-family="Helvetica,sans-Serif" font-size="10.00">data</text>
<text text-anchor="start" x="8.12" y="-262.5" font-family="Helvetica,sans-Serif" font-size="10.00">+</text>
<text text-anchor="start" x="18.12" y="-262.5" font-family="Helvetica,sans-Serif" font-size="10.00">size</text>
<text text-anchor="start" x="8.12" y="-246.5" font-family="Helvetica,sans-Serif" font-size="10.00">+</text>
<text text-anchor="start" x="18.12" y="-246.5" font-family="Helvetica,sans-Serif" font-size="10.00">capacity</text>
<text text-anchor="start" x="8.12" y="-230.5" font-family="Helvetica,sans-Serif" font-size="10.00">+</text>
<text text-anchor="start" x="18.12" y="-230.5" font-family="Helvetica,sans-Serif" font-size="10.00">owns_allocator</text>
<text text-anchor="start" x="8.12" y="-214.5" font-family="Helvetica,sans-Serif" font-size="10.00">+</text>
<text text-anchor="start" x="18.12" y="-214.5" font-family="Helvetica,sans-Serif" font-size="10.00">GROWTH_FACTOR</text>
<text text-anchor="start" x="8.12" y="-198.5" font-family="Helvetica,sans-Serif" font-size="10.00">+</text>
<text text-anchor="start" x="18.12" y="-198.5" font-family="Helvetica,sans-Serif" font-size="10.00">DEFAULT_CAPACITY</text>
<text text-anchor="start" x="8.12" y="-182.5" font-family="Helvetica,sans-Serif" font-size="10.00">+</text>
<text text-anchor="start" x="18.12" y="-182.5" font-family="Helvetica,sans-Serif" font-size="10.00">DynArray()</text>
<text text-anchor="start" x="8.12" y="-166.5" font-family="Helvetica,sans-Serif" font-size="10.00">+</text>
<text text-anchor="start" x="18.12" y="-166.5" font-family="Helvetica,sans-Serif" font-size="10.00">DynArray()</text>
<text text-anchor="start" x="8.12" y="-150.5" font-family="Helvetica,sans-Serif" font-size="10.00">+</text>
<text text-anchor="start" x="18.12" y="-150.5" font-family="Helvetica,sans-Serif" font-size="10.00">DynArray()</text>
<text text-anchor="start" x="8.12" y="-134.5" font-family="Helvetica,sans-Serif" font-size="10.00">+</text>
<text text-anchor="start" x="18.12" y="-134.5" font-family="Helvetica,sans-Serif" font-size="10.00">DynArray()</text>
<text text-anchor="start" x="8.12" y="-118.5" font-family="Helvetica,sans-Serif" font-size="10.00">+</text>
<text text-anchor="start" x="18.12" y="-118.5" font-family="Helvetica,sans-Serif" font-size="10.00">DynArray()</text>
<text text-anchor="start" x="8.12" y="-102.5" font-family="Helvetica,sans-Serif" font-size="10.00">+</text>
<text text-anchor="start" x="18.12" y="-102.5" font-family="Helvetica,sans-Serif" font-size="10.00">~DynArray()</text>
<text text-anchor="start" x="8.12" y="-86.5" font-family="Helvetica,sans-Serif" font-size="10.00">+</text>
<text text-anchor="start" x="18.12" y="-86.5" font-family="Helvetica,sans-Serif" font-size="10.00">DynArray()</text>
<text text-anchor="start" x="8.12" y="-70.5" font-family="Helvetica,sans-Serif" font-size="10.00">+</text>
<text text-anchor="start" x="18.12" y="-70.5" font-family="Helvetica,sans-Serif" font-size="10.00">DynArray()</text>
<text text-anchor="start" x="8.12" y="-54.5" font-family="Helvetica,sans-Serif" font-size="10.00">+</text>
<text text-anchor="start" x="18.12" y="-54.5" font-family="Helvetica,sans-Serif" font-size="10.00">operator=()</text>
<text text-anchor="start" x="8.12" y="-38.5" font-family="Helvetica,sans-Serif" font-size="10.00">+</text>
<text text-anchor="start" x="18.12" y="-38.5" font-family="Helvetica,sans-Serif" font-size="10.00">operator=()</text>
<text text-anchor="start" x="18.12" y="-22.5" font-family="Helvetica,sans-Serif" font-size="10.00">and 29 more...</text>
<text text-anchor="start" x="9.62" y="-6.5" font-family="Helvetica,sans-Serif" font-size="10.00">&#45;</text>
<text text-anchor="start" x="18.12" y="-6.5" font-family="Helvetica,sans-Serif" font-size="10.00">grow()</text>
<polygon fill="#666666" stroke="#666666" points="4.12,-290 4.12,-290 121.88,-290 121.88,-290 4.12,-290"/>
<polygon fill="#666666" stroke="#666666" points="4.12,-194 4.12,-194 16.12,-194 16.12,-194 4.12,-194"/>
<polygon fill="#666666" stroke="#666666" points="16.12,-194 16.12,-194 121.88,-194 121.88,-194 16.12,-194"/>
<polygon fill="none" stroke="#666666" points="4.12,0 4.12,-308 121.88,-308 121.88,0 4.12,0"/>
</a>
</g>
</g>
<!-- Node2 -->
<g id="Node000002" class="node">
<title>Node2</title>
<g id="a_Node000002"><a xlink:href="structmemory_1_1_linear_allocator.html" target="_top" xlink:title="Linear (Arena) allocator implementation.">
<polygon fill="white" stroke="none" points="126,-616 0,-616 0,-356 126,-356 126,-616"/>
<text text-anchor="start" x="10.12" y="-602.5" font-family="Helvetica,sans-Serif" font-size="10.00">memory::LinearAllocator</text>
<text text-anchor="start" x="4" y="-586.5" font-family="Helvetica,sans-Serif" font-size="10.00">+</text>
<text text-anchor="start" x="14" y="-586.5" font-family="Helvetica,sans-Serif" font-size="10.00">buf</text>
<text text-anchor="start" x="4" y="-570.5" font-family="Helvetica,sans-Serif" font-size="10.00">+</text>
<text text-anchor="start" x="14" y="-570.5" font-family="Helvetica,sans-Serif" font-size="10.00">buf_len</text>
<text text-anchor="start" x="4" y="-554.5" font-family="Helvetica,sans-Serif" font-size="10.00">+</text>
<text text-anchor="start" x="14" y="-554.5" font-family="Helvetica,sans-Serif" font-size="10.00">prev_offset</text>
<text text-anchor="start" x="4" y="-538.5" font-family="Helvetica,sans-Serif" font-size="10.00">+</text>
<text text-anchor="start" x="14" y="-538.5" font-family="Helvetica,sans-Serif" font-size="10.00">curr_offset</text>
<text text-anchor="start" x="4" y="-522.5" font-family="Helvetica,sans-Serif" font-size="10.00">+</text>
<text text-anchor="start" x="14" y="-522.5" font-family="Helvetica,sans-Serif" font-size="10.00">DEFAULT_ALIGNMENT</text>
<text text-anchor="start" x="4" y="-506.5" font-family="Helvetica,sans-Serif" font-size="10.00">+</text>
<text text-anchor="start" x="14" y="-506.5" font-family="Helvetica,sans-Serif" font-size="10.00">alloc_align()</text>
<text text-anchor="start" x="4" y="-490.5" font-family="Helvetica,sans-Serif" font-size="10.00">+</text>
<text text-anchor="start" x="14" y="-490.5" font-family="Helvetica,sans-Serif" font-size="10.00">alloc()</text>
<text text-anchor="start" x="4" y="-474.5" font-family="Helvetica,sans-Serif" font-size="10.00">+</text>
<text text-anchor="start" x="14" y="-474.5" font-family="Helvetica,sans-Serif" font-size="10.00">alloc()</text>
<text text-anchor="start" x="4" y="-458.5" font-family="Helvetica,sans-Serif" font-size="10.00">+</text>
<text text-anchor="start" x="14" y="-458.5" font-family="Helvetica,sans-Serif" font-size="10.00">resize_align()</text>
<text text-anchor="start" x="4" y="-442.5" font-family="Helvetica,sans-Serif" font-size="10.00">+</text>
<text text-anchor="start" x="14" y="-442.5" font-family="Helvetica,sans-Serif" font-size="10.00">resize()</text>
<text text-anchor="start" x="4" y="-426.5" font-family="Helvetica,sans-Serif" font-size="10.00">+</text>
<text text-anchor="start" x="14" y="-426.5" font-family="Helvetica,sans-Serif" font-size="10.00">free()</text>
<text text-anchor="start" x="4" y="-410.5" font-family="Helvetica,sans-Serif" font-size="10.00">+</text>
<text text-anchor="start" x="14" y="-410.5" font-family="Helvetica,sans-Serif" font-size="10.00">free_all()</text>
<text text-anchor="start" x="4" y="-394.5" font-family="Helvetica,sans-Serif" font-size="10.00">+</text>
<text text-anchor="start" x="14" y="-394.5" font-family="Helvetica,sans-Serif" font-size="10.00">create()</text>
<text text-anchor="start" x="4" y="-378.5" font-family="Helvetica,sans-Serif" font-size="10.00">+</text>
<text text-anchor="start" x="14" y="-378.5" font-family="Helvetica,sans-Serif" font-size="10.00">is_power_of_two()</text>
<text text-anchor="start" x="4" y="-362.5" font-family="Helvetica,sans-Serif" font-size="10.00">+</text>
<text text-anchor="start" x="14" y="-362.5" font-family="Helvetica,sans-Serif" font-size="10.00">align_forward()</text>
<polygon fill="#666666" stroke="#666666" points="0,-598 0,-598 126,-598 126,-598 0,-598"/>
<polygon fill="#666666" stroke="#666666" points="0,-518 0,-518 12,-518 12,-518 0,-518"/>
<polygon fill="#666666" stroke="#666666" points="12,-518 12,-518 126,-518 126,-518 12,-518"/>
<polygon fill="none" stroke="#666666" points="0,-356 0,-616 126,-616 126,-356 0,-356"/>
</a>
</g>
</g>
<!-- Node2&#45;&gt;Node1 -->
<g id="edge1_Node000001_Node000002" class="edge">
<title>Node2&#45;&gt;Node1</title>
<g id="a_edge1_Node000001_Node000002"><a xlink:title=" ">
<path fill="none" stroke="#63b8ff" d="M63,-356.47C63,-344.77 63,-332.82 63,-320.86"/>
<polygon fill="none" stroke="#63b8ff" points="63,-320.8 59,-314.8 63,-308.8 67,-314.8 63,-320.8"/>
</a>
</g>
<text text-anchor="middle" x="85.88" y="-328.5" font-family="Helvetica,sans-Serif" font-size="10.00" fill="grey"> +allocator</text>
</g>
</g>
</svg>
